<?xml version="1.0" encoding="UTF-8"?><svg id="Layer_2" xmlns="http://www.w3.org/2000/svg" viewBox="0 0 476.4975 270.797"><g id="Components"><g id="d94d52a2-5315-4cab-a37a-d640ccd76bf3_1"><g><path d="m13.2026,117.653C4.3971,109.9837,0,98.6558,0,83.6675v-38.1762C0,30.5049,4.3971,19.1771,13.2026,11.5059,22.0005,3.8347,34.7865,0,51.5568,0c11.6536,0,21.1976,1.9334,28.6321,5.7984,7.4307,3.865,13.3503,9.6633,17.7512,17.3933l-18.0163,12.4887c-3.6888-5.7094-7.5254-9.8129-11.5097-12.3107-3.9843-2.4977-9.6046-3.7457-16.8573-3.7457-9.1577,0-15.8499,2.1701-20.069,6.5104-4.2229,4.3441-6.3324,10.7939-6.3324,19.357v38.1762c0,8.565,2.1095,15.0186,6.3324,19.3589,4.2191,4.3403,10.9113,6.5104,20.069,6.5104,7.8511,0,13.9411-1.3369,18.2852-4.0146,4.3403-2.6738,8.2336-6.9838,11.6839-12.9337l17.8421,13.2026c-3.8063,5.4727-7.7337,9.8735-11.7748,13.2026-4.0449,3.3291-8.9494,5.859-14.7175,7.5784-5.7719,1.7232-12.8769,2.5867-21.3188,2.5867-16.7702,0-29.5562-3.8328-38.3542-11.5059Z"/><path d="m268.8427,2.1398h46.3833c14.032,0,25.1251,2.0243,33.2716,6.0654,8.1465,4.0449,14.032,10.5571,17.6603,19.535,3.6282,8.9816,5.4424,21.2601,5.4424,36.8392s-1.8141,27.8614-5.4424,36.8411c-3.6282,8.9797-9.5137,15.4939-17.6603,19.535-8.1465,4.0449-19.2396,6.0635-33.2716,6.0635h-46.3833V2.1398Zm46.3833,105.2571c7.8511,0,14.032-1.3672,18.5541-4.1055,4.5183-2.7344,7.7602-7.1921,9.722-13.3768,1.9618-6.1847,2.9427-14.6304,2.9427-25.3353s-.9809-19.1468-2.9427-25.3315c-1.9618-6.1828-5.2038-10.6424-9.722-13.3806-4.5221-2.7344-10.703-4.1036-18.5541-4.1036h-21.2279v85.6331h21.2279Z"/><path d="m400.3232,117.0281c-6.9005-6.6581-10.347-16.2893-10.347-28.8972v-47.0991c0-12.6061,3.4465-22.2391,10.347-28.901,6.8967-6.66,18.2549-9.9909,34.0745-9.9909h41.7438v19.624h-41.7438c-6.5445,0-11.3923,1.5471-14.5395,4.6395-3.1548,3.0942-4.7304,7.9685-4.7304,14.6285v13.7366h53.1626v19.624h-53.1626v13.7385c0,6.5407,1.5755,11.3885,4.7304,14.5395,3.1473,3.151,7.995,4.7266,14.5395,4.7266h42.0998v19.6221h-42.0998c-15.8196,0-27.1778-3.3291-34.0745-9.9909Z"/></g><g><path d="m166.057,266.6082c-5.4651-2.795-10.8393-7.1656-16.1264-13.1155l14.9561-15.1606c3.6017,4.7569,7.0558,8.0859,10.3621,9.9872,3.3025,1.905,7.4762,2.8556,12.5209,2.8556,7.6845,0,13.4828-1.6929,17.3876-5.0826,3.9009-3.3896,5.8552-8.3548,5.8552-14.8993v-87.4151h25.4053v87.4151c0,13.0852-4.0524,22.9549-12.1611,29.6168-8.1086,6.6619-20.0311,9.9872-35.7674,9.9872-9.491,0-16.9672-1.3975-22.4323-4.1888Z" style="fill:#0d96d4;"/><path d="m268.4223,143.7779h46.8453c14.1721,0,25.375,2.0262,33.6049,6.0673,8.2261,4.0449,14.1721,10.5553,17.8383,19.535,3.6623,8.9797,5.4954,21.2582,5.4954,36.8392s-1.8331,27.8595-5.4954,36.8392c-3.6661,8.9797-9.6122,15.4939-17.8383,19.535-8.2298,4.0449-19.4327,6.0635-33.6049,6.0635h-46.8453v-124.8792Zm46.8453,105.2571c7.9269,0,14.1721-1.3672,18.7396-4.1055,4.5637-2.7344,7.836-7.1921,9.8205-13.3768,1.9808-6.1847,2.973-14.6304,2.973-25.3334s-.9923-19.1487-2.973-25.3334c-1.9846-6.1809-5.2568-10.6424-9.8205-13.3806-4.5675-2.7344-10.8128-4.1017-18.7396-4.1017h-21.44v85.6312h21.44Z" style="fill:#0d96d4;"/></g><g><path d="m14.7905,165.3791h27.6105c5.2676,0,9.5037,1.4403,12.714,4.3132,3.2084,2.8767,4.8145,6.677,4.8145,11.399,0,3.513-.939,6.5247-2.815,9.0371-1.878,2.5123-4.4829,4.2553-7.8108,5.2232,3.9353.9679,7.0068,2.8613,9.2183,5.6764,2.2096,2.815,3.3144,6.3107,3.3144,10.4889,0,5.391-1.7874,9.6425-5.3582,12.7602-3.5728,3.1197-8.4162,4.6776-14.5322,4.6776H14.7905v-63.5756Zm27.0649,27.5199c3.3896,0,6.1603-1.045,8.3102-3.1351,2.1479-2.0881,3.2238-4.7663,3.2238-8.0364,0-3.3896-1.0431-6.0851-3.1332-8.0826-2.0881-1.9975-4.8897-2.9982-8.4008-2.9982h-20.5247v22.2523h20.5247Zm-1.4538,30.7881c4.8434,0,8.5377-1.0913,11.0808-3.2701,2.5432-2.1788,3.8157-5.3254,3.8157-9.4439s-1.288-7.2805-3.8601-9.4921c-2.576-2.2096-6.2529-3.3144-11.0365-3.3144h-19.0709v25.5205h19.0709Z"/><path d="m86.8131,202.3429l-21.7973-36.9638h7.2651l17.9835,30.8787,17.6191-30.8787h7.3557l-21.8879,36.9638v26.6118h-6.5382v-26.6118Z"/></g><g><path d="m127.2608,2.6119h46.5613v12.5092h-26.5813v98.6316h26.5813v12.5062h-46.5613V2.6119Z"/><path d="m188.0927,113.7528h26.5813V15.1212h-26.5813V2.6119h46.5632v123.6471h-46.5632v-12.5062Z"/></g><path d="m179.0321,224.7178l-48.5407-21.1067v-11.6884l48.5407-21.0101v13.7653l-33.8577,12.9442,33.8577,13.4272v13.6687Z"/><path d="m390.9849,211.0492l33.8577-13.4272-33.8577-12.9442v-13.7653s48.5407,21.0101,48.5407,21.0101v11.6884s-48.5407,21.1067-48.5407,21.1067v-13.6687Z"/></g></g></svg>